<?xml version="1.0" encoding="utf-8"?>
<!-- Generator: Adobe Illustrator 15.0.0, SVG Export Plug-In . SVG Version: 6.00 Build 0)  -->
<!DOCTYPE svg PUBLIC "-//W3C//DTD SVG 1.1//EN" "http://www.w3.org/Graphics/SVG/1.1/DTD/svg11.dtd">
<svg xmlns="http://www.w3.org/2000/svg" xmlns:xlink="http://www.w3.org/1999/xlink" version="1.1" x="0px" y="0px" width="200px" height="200px" viewBox="0 0 48 48" enable-background="new 0 0 48 48" xml:space="preserve">
<g>
	<path fill="#2E7D32" d="M42.534,23.788c1.612,3.586-1.367,7.132-2.766,7.16h-3.484l-5.233-9.287l7.717-4.465l3.706,6.408   L42.534,23.788L42.534,23.788z"/>
	<path fill="#2E7D32" d="M24.097,8.276l-1.943-2.262h-2.096c-1.688-0.027-3.746,0.57-4.96,2.308l-0.093,0.152l-3.705,6.41   l7.719,4.467l5.599-9.152L24.097,8.276z"/>
	<path fill="#2E7D32" d="M15.404,39.903c-3.921-0.397-5.635-4.405-4.967-5.652L12.016,31h11.561l-0.578,8.934h-7.412L15.404,39.903   L15.404,39.903z"/>
</g>
<g>
	<path fill="#4CAF50" d="M39.467,30.896c1.063-0.031,1.786-0.666,2.688-1.972l-5.881,9.902c-0.423,0.94-1.002,1.094-1.608,1.035   h-5.197l-0.031,3.157l-4.376-7.596l4.405-7.685v3.157H39.467L39.467,30.896z"/>
	<path fill="#4CAF50" d="M22.666,7.197C21.847,5.886,20.67,6.015,20.3,6.015h10.813c1.033-0.097,1.457,0.3,1.732,0.878l2.582,4.497   l2.731-1.579l-4.375,7.626l-8.839,0.033l2.703-1.58L22.666,7.197L22.666,7.197z"/>
	<path fill="#4CAF50" d="M10.662,33.782c-0.515,0.913-0.366,1.786,0.264,3.045l-5.551-9.788c-0.577-0.854-0.425-1.399-0.093-1.916   l2.613-4.495l-2.732-1.611h8.781l4.467,7.656l-2.735-1.577L10.662,33.782L10.662,33.782z"/>
</g>
</svg>
