<?xml version="1.0" encoding="utf-8"?>
<!-- Generator: Adobe Illustrator 16.0.4, SVG Export Plug-In . SVG Version: 6.00 Build 0)  -->
<!DOCTYPE svg PUBLIC "-//W3C//DTD SVG 1.1//EN" "http://www.w3.org/Graphics/SVG/1.1/DTD/svg11.dtd">
<svg version="1.1" id="Layer_1" xmlns="http://www.w3.org/2000/svg" xmlns:xlink="http://www.w3.org/1999/xlink" x="0px" y="0px"
	 width="195.5px" height="139.25px" viewBox="-60.5 0 195.5 139.25" 
	 >
<g>
	<path fill="#2E7D32" d="M96.568,64.177c4.954,11.022-4.202,21.922-8.503,22.009H77.357L61.271,57.639l23.722-13.725l11.392,19.697
		L96.568,64.177L96.568,64.177z"/>
	<path fill="#2E7D32" d="M39.896,16.495l-5.972-6.953h-6.443c-5.188-0.083-11.515,1.752-15.247,7.094l-0.286,0.468L0.561,36.807
		l23.727,13.731l17.211-28.132L39.896,16.495z"/>
	<path fill="#2E7D32" d="M13.175,113.712C1.123,112.49-4.146,100.171-2.092,96.338l4.854-9.993h35.536l-1.776,27.462H13.737
		L13.175,113.712L13.175,113.712z"/>
</g>
<g>
	<path fill="#4CAF50" d="M87.14,86.025c3.27-0.095,5.49-2.048,8.264-6.062l-18.078,30.438c-1.3,2.889-3.079,3.361-4.942,3.182
		H56.408l-0.096,9.703l-13.45-23.35l13.54-23.621v9.704H87.14V86.025z"/>
	<path fill="#4CAF50" d="M35.498,13.179c-2.518-4.03-6.136-3.633-7.273-3.633h33.238c3.174-0.298,4.479,0.922,5.322,2.699
		l7.937,13.823l8.396-4.854L69.67,44.655L42.5,44.756l8.307-4.856L35.498,13.179L35.498,13.179z"/>
	<path fill="#4CAF50" d="M-1.4,94.896c-1.583,2.807-1.126,5.489,0.811,9.36L-17.652,74.17c-1.773-2.625-1.307-4.301-0.286-5.89
		l8.032-13.817l-8.397-4.951H8.688l13.73,23.532l-8.407-4.848L-1.4,94.896L-1.4,94.896z"/>
</g>
</svg>
